<?xml version="1.0" standalone="no"?>
<!DOCTYPE svg PUBLIC "-//W3C//DTD SVG 1.1//EN" "http://www.w3.org/Graphics/SVG/1.1/DTD/svg11.dtd" >
<svg xmlns="http://www.w3.org/2000/svg">
<metadata></metadata>
<defs>
<font id="galano_grotesquelight" horiz-adv-x="1660" >
<font-face units-per-em="2048" ascent="1638" descent="-410" />
<missing-glyph horiz-adv-x="524" />
<glyph unicode="&#xfb01;" horiz-adv-x="1243" d="M41 915v86h184v179q0 153 85.5 242t234.5 89q108 0 190 -55l-33 -78q-67 43 -151 43q-105 0 -165 -65.5t-60 -175.5v-179h700v-1001h-98v915h-602v-915h-101v915h-184zM897 1307q0 33 22.5 55t57.5 22q33 0 55.5 -22t22.5 -55q0 -32 -22 -54t-56 -22q-35 0 -57.5 21.5 t-22.5 54.5z" />
<glyph unicode="&#xfb02;" horiz-adv-x="1210" d="M41 915v86h184v179q0 153 85.5 242t232.5 89q82 0 157 -32l-30 -84q-53 26 -121 26q-103 0 -163 -65.5t-60 -175.5v-179h395v-86h-395v-915h-101v915h-184zM913 0v1475h101v-1475h-101z" />
<glyph horiz-adv-x="0" />
<glyph horiz-adv-x="682" />
<glyph unicode=" "  horiz-adv-x="524" />
<glyph unicode="&#x09;" horiz-adv-x="524" />
<glyph unicode="&#xa0;" horiz-adv-x="524" />
<glyph unicode="!" horiz-adv-x="532" d="M186 72q0 31 23 53t57 22q33 0 55.5 -22t22.5 -53q0 -34 -22 -56t-56 -22t-57 22t-23 56zM213 1309v63h106v-63l-2 -922h-100z" />
<glyph unicode="&#x22;" horiz-adv-x="602" d="M119 823v549h100v-549h-100zM385 823v549h100v-549h-100z" />
<glyph unicode="#" horiz-adv-x="1376" d="M70 367l24 88h221l113 440h-223l24 86h222l100 391h92l-100 -391h446l101 391h92l-101 -391h224l-25 -86h-221l-113 -440h223l-22 -88h-223l-95 -367h-92l94 367h-444l-94 -367h-94l94 367h-223zM410 455h444l115 440h-447z" />
<glyph unicode="$" horiz-adv-x="1187" d="M113 418l102 22q13 -133 107.5 -216.5t236.5 -98.5v532l-110 27q-295 63 -295 303q0 154 111.5 249.5t291.5 104.5v236h90v-238q169 -15 278 -111.5t124 -238.5l-99 -20q-13 118 -96.5 192t-208.5 88v-512l119 -28q65 -14 116 -35.5t97 -57t71 -91.5t25 -130 q0 -161 -117 -259.5t-309 -104.5v-236h-90v240q-183 18 -306 121t-138 262zM260 991q0 -94 57.5 -142.5t165.5 -74.5l76 -18v497q-134 -8 -216.5 -78.5t-82.5 -183.5zM645 121q150 4 239 77.5t89 192.5q0 97 -59.5 147t-172.5 76l-96 23v-516z" />
<glyph unicode="%" horiz-adv-x="1746" d="M113 1071q0 145 98.5 234.5t234.5 89.5q137 0 234.5 -89t97.5 -235q0 -139 -98 -230t-234 -91q-135 0 -234 91t-99 230zM190 1071q0 -108 77 -177t179 -69q101 0 177.5 69t76.5 177q0 111 -76.5 181.5t-177.5 70.5q-102 0 -179 -70.5t-77 -181.5zM301 0l1036 1372h80 l-1036 -1372h-80zM969 299q0 145 98.5 234.5t235.5 89.5t234 -89t97 -235q0 -141 -97.5 -231.5t-233.5 -90.5q-135 0 -234.5 91t-99.5 231zM1047 299q0 -108 77 -177t179 -69q101 0 177 69t76 177q0 111 -76 181.5t-177 70.5q-102 0 -179 -70.5t-77 -181.5z" />
<glyph unicode="&#x26;" horiz-adv-x="1468" d="M143 373q0 129 77 229t200 156q-65 74 -94 143t-29 146q0 154 106 251t271 97q158 0 260.5 -90.5t120.5 -253.5l-92 -21q-14 143 -91.5 211t-199.5 68t-199.5 -72t-77.5 -190q0 -114 80.5 -214.5t278.5 -257.5l317 -260q68 127 68 291v82h90v-82q0 -201 -86 -348 l268 -219l-57 -70l-262 215q-82 -101 -202 -154t-257 -53q-220 0 -355 108.5t-135 287.5zM242 373q0 -140 107 -225t284 -85q114 0 216 46t173 133l-342 280q-110 85 -201 172q-112 -50 -174.5 -133t-62.5 -188z" />
<glyph unicode="'" horiz-adv-x="335" d="M119 823v549h100v-549h-100z" />
<glyph unicode="(" horiz-adv-x="708" d="M129 684q0 244 89.5 456t293.5 398l68 -65q-188 -179 -266 -370.5t-78 -418.5q0 -225 78 -416.5t266 -371.5l-68 -64q-203 185 -293 397t-90 455z" />
<glyph unicode=")" horiz-adv-x="708" d="M129 -104q188 180 266 371.5t78 416.5q0 227 -78 418.5t-266 370.5l68 65q204 -186 293.5 -398t89.5 -456q0 -243 -90 -455t-293 -397z" />
<glyph unicode="*" horiz-adv-x="851" d="M94 975l260 147l-260 148l37 63l256 -145v287h78v-289l258 147l37 -63l-260 -148l260 -147l-37 -62l-258 146v-291h-78v291l-256 -146z" />
<glyph unicode="+" horiz-adv-x="1187" d="M154 580v90h395v397h90v-397h395v-90h-395v-398h-90v398h-395z" />
<glyph unicode="," horiz-adv-x="387" d="M37 -270l141 534h121v-6l-182 -528h-80z" />
<glyph unicode="-" horiz-adv-x="903" d="M123 477v90h657v-90h-657z" />
<glyph unicode="." horiz-adv-x="382" d="M113 72q0 31 23 53t57 22q33 0 55 -22t22 -53q0 -34 -21.5 -56t-55.5 -22t-57 22t-23 56z" />
<glyph unicode="/" horiz-adv-x="702" d="M12 -147l590 1663h88l-590 -1663h-88z" />
<glyph unicode="0" horiz-adv-x="1361" d="M123 686q0 318 153.5 513.5t403.5 195.5q165 0 292.5 -88.5t197 -249.5t69.5 -371t-69.5 -371t-197 -249.5t-292.5 -88.5q-250 0 -403.5 195.5t-153.5 513.5zM227 686q0 -275 124.5 -443.5t328.5 -168.5q205 0 330 168t125 444t-125 445t-330 169q-204 0 -328.5 -169 t-124.5 -445z" />
<glyph unicode="1" horiz-adv-x="712" d="M37 1024v100l420 248h63v-1372h-102v1243z" />
<glyph unicode="2" horiz-adv-x="1044" d="M63 0v66l502 456q68 60 106.5 97t80.5 84.5t62.5 86.5t34 87t13.5 102q0 146 -95 236t-249 90q-160 0 -257.5 -99t-100.5 -266l-97 16q5 198 129.5 318.5t325.5 120.5q200 0 322.5 -114t122.5 -300q0 -52 -8.5 -97.5t-30 -89.5t-45.5 -80.5t-67 -82.5t-81.5 -83.5 t-101.5 -94.5l-396 -359h748v-94h-918z" />
<glyph unicode="3" horiz-adv-x="1214" d="M129 428l98 18q9 -172 115 -275t283 -103q161 0 261.5 87t100.5 228q0 131 -94.5 205t-259.5 74h-184v88h180q150 0 239.5 70.5t89.5 191.5q0 132 -94.5 212.5t-249.5 80.5q-163 0 -262 -95.5t-108 -259.5l-97 19q12 192 138.5 309t328.5 117q198 0 319.5 -105.5 t121.5 -277.5q0 -117 -65 -196t-179 -109q129 -26 200.5 -110t71.5 -212q0 -183 -126.5 -295.5t-331.5 -112.5q-216 0 -350.5 124t-145.5 327z" />
<glyph unicode="4" horiz-adv-x="1271" d="M88 356v105l758 911h123v-928h237v-88h-237v-356h-101v356h-780zM201 444h667v807z" />
<glyph unicode="5" horiz-adv-x="1144" d="M88 442l102 21q0 -181 108 -287t282 -106q166 0 267 91t101 242t-92.5 227.5t-257.5 76.5h-418l35 665h784v-94h-690l-26 -479h321q206 0 325.5 -100.5t119.5 -292.5t-129.5 -310.5t-341.5 -118.5q-216 0 -351.5 126t-138.5 339z" />
<glyph unicode="6" horiz-adv-x="1245" d="M123 641q0 417 188 610q141 144 353 144q155 0 267 -76t150 -213l-100 -19q-29 105 -114.5 161.5t-207.5 56.5q-171 0 -282 -121q-166 -185 -154 -549v-31q43 126 164 204.5t272 78.5q210 0 336.5 -128t126.5 -325q0 -198 -129 -327.5t-340 -129.5q-256 0 -393 174.5 t-137 489.5zM268 430q0 -156 110.5 -257t272.5 -101q165 0 267 104.5t102 259.5t-102 258t-267 103q-172 0 -277.5 -109t-105.5 -258z" />
<glyph unicode="7" horiz-adv-x="1003" d="M53 1278v94h918v-67l-570 -1305h-116l569 1278h-801z" />
<glyph unicode="8" horiz-adv-x="1193" d="M100 356q0 122 81.5 219t246.5 132q-148 35 -219.5 125t-71.5 208q0 160 126 257.5t337 97.5q207 0 333 -97.5t126 -257.5q0 -75 -27 -139t-94.5 -118t-169.5 -76q166 -33 247 -131.5t81 -219.5q0 -169 -137 -274t-359 -105q-225 0 -362.5 105t-137.5 274zM213 360 q0 -132 106.5 -211t278.5 -79q171 0 278 79.5t107 212.5q0 128 -103 210.5t-280 82.5q-176 0 -281.5 -82.5t-105.5 -212.5zM238 1034q0 -122 97.5 -199t262.5 -77q166 0 263 78t97 198q0 124 -99.5 199.5t-258.5 75.5q-162 0 -262 -75.5t-100 -199.5z" />
<glyph unicode="9" horiz-adv-x="1245" d="M123 938q0 198 129.5 327.5t341.5 129.5q255 0 391.5 -174t136.5 -490q0 -416 -186 -610q-141 -144 -352 -144q-156 0 -268.5 75.5t-151.5 213.5l100 19q30 -105 115 -160t209 -55q172 0 280 118q164 182 156 549l-2 33q-41 -126 -161.5 -204.5t-272.5 -78.5 q-211 0 -338 127.5t-127 323.5zM225 936q0 -154 102.5 -257.5t266.5 -103.5q116 0 205 52.5t133.5 135.5t44.5 179q0 157 -110 257.5t-273 100.5q-164 0 -266.5 -105t-102.5 -259z" />
<glyph unicode=":" horiz-adv-x="382" d="M113 72q0 31 23 53t57 22q33 0 55 -22t22 -53q0 -34 -21.5 -56t-55.5 -22t-57 22t-23 56zM113 846q0 31 23.5 53.5t56.5 22.5t55 -22.5t22 -53.5q0 -34 -21.5 -55t-55.5 -21t-57 21.5t-23 54.5z" />
<glyph unicode=";" horiz-adv-x="434" d="M37 -270l141 534h121v-6l-182 -528h-80zM164 846q0 31 22.5 53.5t55.5 22.5t56.5 -22.5t23.5 -53.5q0 -33 -23 -54.5t-57 -21.5t-56 21t-22 55z" />
<glyph unicode="&#x3c;" horiz-adv-x="880" d="M63 592v90l738 344v-106l-611 -283l611 -285v-104z" />
<glyph unicode="=" horiz-adv-x="1187" d="M154 416v88h880v-88h-880zM154 793v90h880v-90h-880z" />
<glyph unicode="&#x3e;" horiz-adv-x="880" d="M82 248v104l610 285l-610 283v106l737 -344v-90z" />
<glyph unicode="?" horiz-adv-x="1056" d="M78 956q3 193 129.5 316t329.5 123q201 0 323.5 -115t122.5 -303q0 -171 -119 -283t-303 -123v-180h-96v262h57q154 0 258.5 90t104.5 234q0 148 -95.5 238t-252.5 90q-159 0 -258.5 -101t-104.5 -266zM434 72q0 31 22.5 53t55.5 22q34 0 57 -22t23 -53q0 -34 -23 -56 t-57 -22t-56 22t-22 56z" />
<glyph unicode="@" horiz-adv-x="1980" d="M150 575q0 175 64.5 328t176.5 260.5t268.5 169.5t335.5 62q174 0 328.5 -59t266.5 -162t177.5 -250.5t65.5 -317.5q0 -89 -18 -169.5t-54.5 -148.5t-100.5 -108.5t-147 -40.5q-103 0 -165.5 53t-67.5 142q-51 -87 -137.5 -135.5t-192.5 -48.5q-171 0 -287 116.5 t-116 300.5q0 186 116 303t287 117q105 0 192 -49t138 -137v166h76v-617q0 -65 45.5 -105t116.5 -40q61 0 108 34t75 91.5t42 127t14 146.5q0 209 -101 375.5t-275 258t-386 91.5q-163 0 -306.5 -57t-245.5 -156t-161 -238.5t-59 -299.5q0 -159 59 -300t159.5 -240 t237.5 -156.5t288 -57.5q122 0 255.5 36t227.5 99l39 -63q-97 -66 -242 -104t-278 -38q-167 0 -318 61.5t-261 168.5t-175 261t-65 330zM629 569q0 -155 95.5 -250.5t233.5 -95.5q136 0 229 96t93 250q0 153 -93 246.5t-229 93.5q-138 0 -233.5 -94t-95.5 -246z" />
<glyph unicode="A" horiz-adv-x="1402" d="M31 0l624 1372h93l624 -1372h-110l-168 375h-783l-170 -375h-110zM354 469h697l-349 772z" />
<glyph unicode="B" horiz-adv-x="1378" d="M197 0v1372h610q193 0 301.5 -96t108.5 -256q0 -126 -71.5 -215.5t-176.5 -104.5v-4q133 -14 214 -101.5t81 -225.5q0 -164 -113 -266.5t-305 -102.5h-649zM301 90h537q146 0 233.5 79t87.5 206q0 126 -89.5 200t-233.5 74h-535v-559zM301 735h528q129 0 209 77.5 t80 203.5q0 122 -84.5 194t-234.5 72h-498v-547z" />
<glyph unicode="C" horiz-adv-x="1607" d="M129 686q0 146 55.5 277.5t149.5 226t225 150t277 55.5q229 0 401 -113t242 -303l-99 -31q-60 162 -204.5 256t-339.5 94q-125 0 -237 -47.5t-192.5 -129t-128 -195t-47.5 -240.5t47.5 -240.5t128 -195t192.5 -129t237 -47.5q193 0 336.5 93.5t205.5 256.5l101 -25 q-70 -194 -241.5 -308t-401.5 -114q-146 0 -277 55.5t-225 150t-149.5 226t-55.5 277.5z" />
<glyph unicode="D" horiz-adv-x="1517" d="M197 0v1372h430q181 0 327.5 -54t240.5 -148t144 -217.5t50 -266.5t-50 -266.5t-144 -217.5t-240.5 -148t-327.5 -54h-430zM301 94h324q158 0 285.5 46.5t208.5 128t124 188t43 229.5t-43 229.5t-124 188t-208.5 128t-285.5 46.5h-324v-1184z" />
<glyph unicode="E" horiz-adv-x="1308" d="M197 0v1372h983v-94h-879v-543h817v-92h-817v-549h879v-94h-983z" />
<glyph unicode="F" horiz-adv-x="1204" d="M197 0v1372h962v-94h-858v-549h793v-94h-793v-635h-104z" />
<glyph unicode="G" horiz-adv-x="1648" d="M129 686q0 195 93 358t255.5 257t356.5 94q226 0 395.5 -103.5t243.5 -283.5l-93 -35q-69 154 -212.5 239.5t-333.5 85.5q-125 0 -236.5 -47.5t-191.5 -129t-126.5 -195t-46.5 -240.5q0 -169 80 -310t219 -221.5t306 -80.5q123 0 228.5 43.5t180 119.5t120 179t52.5 221 h-665v94h764q2 -16 2 -45q0 -196 -84.5 -357t-242 -256.5t-357.5 -95.5q-195 0 -357.5 94t-256 256.5t-93.5 358.5z" />
<glyph unicode="H" horiz-adv-x="1509" d="M197 0v1372h104v-633h909v633h103v-1372h-103v645h-909v-645h-104z" />
<glyph unicode="I" horiz-adv-x="497" d="M197 0v1372h104v-1372h-104z" />
<glyph unicode="J" horiz-adv-x="1218" d="M57 416l99 22q21 -166 124.5 -266t264.5 -100q176 0 283.5 120.5t107.5 313.5v866h102v-866q0 -235 -136 -382t-357 -147q-199 0 -331 121t-157 318z" />
<glyph unicode="K" horiz-adv-x="1374" d="M197 0v1372h104v-641h66l749 641h133l-796 -688l843 -684h-143l-780 637h-72v-637h-104z" />
<glyph unicode="L" horiz-adv-x="1193" d="M197 0v1372h104v-1278h827v-94h-931z" />
<glyph unicode="M" horiz-adv-x="1849" d="M197 0v1372h92l637 -1220l637 1220h90v-1372h-101v1147l-596 -1147h-63l-596 1147v-1147h-100z" />
<glyph unicode="N" horiz-adv-x="1556" d="M197 0v1372h92l966 -1202v1202h103v-1372h-92l-965 1194v-1194h-104z" />
<glyph unicode="O" d="M129 686q0 195 92.5 357.5t254 257t355.5 94.5q145 0 275 -55.5t223.5 -150.5t148 -226t54.5 -277q0 -195 -92.5 -358t-254 -257t-354.5 -94q-194 0 -355.5 94t-254 256.5t-92.5 358.5zM231 686q0 -170 79 -310.5t216.5 -221t304.5 -80.5q124 0 235 47.5t191 128.5 t126.5 194.5t46.5 241.5q0 127 -46.5 240.5t-126.5 195t-191 129t-235 47.5q-166 0 -304 -80.5t-217 -221.5t-79 -310z" />
<glyph unicode="P" horiz-adv-x="1316" d="M197 0v1372h579q209 0 336 -113.5t127 -293.5q0 -183 -127 -296.5t-336 -113.5h-475v-555h-104zM301 649h475q162 0 260.5 88t98.5 228q0 138 -98.5 225.5t-260.5 87.5h-475v-629z" />
<glyph unicode="Q" d="M129 686q0 195 92.5 357.5t254 257t355.5 94.5q145 0 275 -55.5t223.5 -150.5t148 -226t54.5 -277q0 -178 -77 -329t-212 -248l305 -363l-80 -72l-317 379q-149 -76 -320 -76q-194 0 -355.5 94t-254 256.5t-92.5 358.5zM231 686q0 -170 79 -310.5t216.5 -221t304.5 -80.5 q124 0 235 47.5t191 128.5t126.5 194.5t46.5 241.5q0 127 -46.5 240.5t-126.5 195t-191 129t-235 47.5q-166 0 -304 -80.5t-217 -221.5t-79 -310z" />
<glyph unicode="R" horiz-adv-x="1368" d="M197 0v1372h624q192 0 309 -102t117 -269t-117 -268.5t-309 -101.5h-88l570 -631h-136l-565 631h-301v-631h-104zM301 723h520q146 0 235 76t89 202q0 125 -89 201t-235 76h-520v-555z" />
<glyph unicode="S" horiz-adv-x="1267" d="M113 385l110 25q19 -158 142 -249t307 -91q174 0 276.5 80.5t102.5 214.5q0 110 -60.5 163t-195.5 84l-318 74q-149 35 -232 113t-83 217q0 172 130 275.5t339 103.5q201 0 332.5 -100.5t166.5 -266.5l-102 -24q-27 138 -133.5 219.5t-267.5 81.5q-156 0 -255.5 -78.5 t-99.5 -208.5q0 -105 63 -158.5t181 -81.5l301 -71q56 -12 101.5 -28t90.5 -43t75.5 -62t49.5 -87.5t19 -117.5q0 -179 -133.5 -285.5t-355.5 -106.5q-224 0 -376 110t-175 298z" />
<glyph unicode="T" horiz-adv-x="1290" d="M57 1278v94h1176v-94h-535v-1278h-106v1278h-535z" />
<glyph unicode="U" horiz-adv-x="1484" d="M178 592v780h105v-780q0 -233 126.5 -374.5t335.5 -141.5q206 0 332.5 141.5t126.5 374.5v780h103v-780q0 -277 -155 -446t-407 -169q-255 0 -411 169t-156 446z" />
<glyph unicode="V" horiz-adv-x="1390" d="M43 1372h113l538 -1229l541 1229h113l-605 -1372h-96z" />
<glyph unicode="W" horiz-adv-x="1943" d="M43 1372h109l380 -1212l390 1212h100l389 -1212l379 1212h108l-432 -1372h-104l-391 1208l-391 -1208h-103z" />
<glyph unicode="X" horiz-adv-x="1263" d="M43 0l512 690l-496 682h127l445 -614l446 614h127l-497 -682l514 -690h-129l-461 623l-459 -623h-129z" />
<glyph unicode="Y" horiz-adv-x="1351" d="M43 1372h117l516 -772l514 772h119l-582 -872v-500h-104v500z" />
<glyph unicode="Z" horiz-adv-x="1282" d="M131 0v66l899 1216h-872v90h1007v-72l-889 -1210h891v-90h-1036z" />
<glyph unicode="[" horiz-adv-x="786" d="M197 -168v1684h462v-89h-362v-1507h362v-88h-462z" />
<glyph unicode="\" horiz-adv-x="702" d="M12 1516h88l590 -1663h-88z" />
<glyph unicode="]" horiz-adv-x="786" d="M129 -80h363v1507h-363v89h461v-1684h-461v88z" />
<glyph unicode="^" horiz-adv-x="755" d="M57 961l287 411h70l286 -411h-98l-223 317l-225 -317h-97z" />
<glyph unicode="_" horiz-adv-x="999" d="M41 -115h917v-86h-917v86z" />
<glyph unicode="`" horiz-adv-x="1228" d="M373 1444h114l179 -283h-91z" />
<glyph unicode="a" horiz-adv-x="1318" d="M84 502q0 154 70 275t185.5 185t252.5 64q136 0 250 -62.5t180 -172.5v210h100v-1001h-100v211q-66 -110 -179.5 -172t-250.5 -62q-102 0 -194.5 37.5t-162 104.5t-110.5 166.5t-41 216.5zM182 502q0 -196 121.5 -315t298.5 -119q109 0 204 51.5t155.5 152.5t60.5 230 q0 128 -60.5 229t-155.5 153t-204 52q-177 0 -298.5 -120t-121.5 -314z" />
<glyph unicode="b" horiz-adv-x="1335" d="M197 0v1475h100v-687q66 112 180 175t252 63q137 0 252 -64t184.5 -185t69.5 -275q0 -117 -40.5 -216.5t-109.5 -166.5t-161.5 -104.5t-194.5 -37.5q-138 0 -252 63t-180 175v-215h-100zM297 502q0 -129 60.5 -230t155.5 -152.5t204 -51.5q177 0 298.5 119t121.5 315 q0 194 -121.5 314t-298.5 120q-109 0 -204 -52t-155.5 -153t-60.5 -229z" />
<glyph unicode="c" horiz-adv-x="1179" d="M100 502q0 114 42 213t112.5 166.5t164.5 106t197 38.5q162 0 290.5 -86t172.5 -229l-94 -31q-34 118 -137 185t-232 67q-173 0 -295 -120.5t-122 -309.5q0 -195 121 -313.5t296 -118.5q129 0 231 63t138 176l92 -26q-39 -140 -167.5 -223t-293.5 -83q-103 0 -197 37.5 t-164.5 104t-112.5 166t-42 217.5z" />
<glyph unicode="d" horiz-adv-x="1335" d="M100 502q0 154 69.5 275t184.5 185t252 64q138 0 252 -63t180 -175v687h101v-1475h-101v215q-66 -112 -180 -175t-252 -63q-102 0 -194.5 37.5t-161.5 104.5t-109.5 166.5t-40.5 216.5zM199 502q0 -196 121 -315t298 -119q109 0 204 51.5t155.5 152.5t60.5 230 q0 128 -60.5 229t-155.5 153t-204 52q-115 0 -210 -52t-152 -152.5t-57 -229.5z" />
<glyph unicode="e" horiz-adv-x="1204" d="M100 498q0 119 43 219.5t115 167.5t165.5 104t194.5 37q207 0 344 -138.5t144 -359.5v-36h-907q2 -129 62.5 -228t151 -148.5t193.5 -49.5q135 0 236 63t153 193l88 -21q-57 -157 -180.5 -240.5t-296.5 -83.5q-97 0 -187.5 36.5t-161.5 102t-114 165t-43 217.5zM203 569 h803q-18 171 -125 269t-263 98q-150 0 -272 -100.5t-143 -266.5z" />
<glyph unicode="f" horiz-adv-x="716" d="M41 915v86h184v179q0 153 85.5 242t232.5 89q82 0 157 -32l-30 -84q-53 26 -121 26q-103 0 -163 -65.5t-60 -175.5v-179h395v-86h-395v-915h-101v915h-184z" />
<glyph unicode="g" horiz-adv-x="1302" d="M100 543q0 141 68.5 252t182 170t247.5 59q136 0 242 -55.5t168 -157.5v190h98v-929q-1 -211 -135 -336t-353 -125q-189 0 -312.5 73t-180.5 207l88 54q53 -119 150.5 -180.5t254.5 -61.5q174 0 281.5 104t108.5 275v190q-62 -102 -168.5 -158.5t-241.5 -56.5 q-134 0 -247.5 60t-182 172t-68.5 254zM197 543q0 -178 119.5 -288t293.5 -110q163 0 280.5 110.5t117.5 287.5q0 175 -117.5 284t-280.5 109q-174 0 -293.5 -108t-119.5 -285z" />
<glyph unicode="h" horiz-adv-x="1286" d="M197 0v1475h100v-687q59 114 165 176t247 62q181 0 292 -119t111 -311v-596h-100v582q0 158 -87.5 254t-228.5 96q-182 0 -290.5 -115.5t-108.5 -314.5v-502h-100z" />
<glyph unicode="i" horiz-adv-x="532" d="M186 1307q0 33 22.5 55t57.5 22q34 0 56 -22t22 -55q0 -32 -22 -54t-56 -22q-35 0 -57.5 21.5t-22.5 54.5zM217 0v1001h98v-1001h-98z" />
<glyph unicode="j" horiz-adv-x="571" d="M-20 -334l26 84q46 -24 98 -24q68 0 110 40.5t42 106.5v1128h98v-1138q0 -104 -63.5 -168t-167.5 -64q-81 0 -143 35zM225 1307q0 32 23 54.5t57 22.5t57 -22.5t23 -54.5t-23 -54t-57 -22t-57 22t-23 54z" />
<glyph unicode="k" horiz-adv-x="1153" d="M197 0v1475h100v-910h78l555 436h135l-614 -487l686 -514h-148l-624 469h-68v-469h-100z" />
<glyph unicode="l" horiz-adv-x="493" d="M197 0v1475h100v-1475h-100z" />
<glyph unicode="m" horiz-adv-x="1935" d="M197 0v1001h100v-196q52 105 146 163t219 58q126 0 218.5 -63t127.5 -172q55 111 155.5 173t231.5 62q160 0 262 -100.5t102 -263.5v-662h-100v647q0 128 -79.5 206.5t-207.5 78.5q-158 0 -252 -109t-94 -297v-526h-100v647q0 128 -79.5 206.5t-207.5 78.5 q-155 0 -248.5 -109.5t-93.5 -296.5v-526h-100z" />
<glyph unicode="n" horiz-adv-x="1286" d="M197 0v1001h100v-213q59 114 165 176t247 62q181 0 292 -119t111 -311v-596h-100v582q0 158 -87.5 254t-228.5 96q-182 0 -290.5 -115.5t-108.5 -314.5v-502h-100z" />
<glyph unicode="o" horiz-adv-x="1253" d="M100 502q0 149 69.5 269t190 186.5t267.5 66.5t267 -66.5t189.5 -186.5t69.5 -269q0 -226 -151 -375.5t-375 -149.5t-375.5 149.5t-151.5 375.5zM199 502q0 -188 123.5 -311t304.5 -123t304.5 123t123.5 311q0 189 -123 311.5t-305 122.5t-305 -122.5t-123 -311.5z" />
<glyph unicode="p" horiz-adv-x="1335" d="M197 -348v1349h100v-213q66 112 180 175t252 63q137 0 252 -64t184.5 -185t69.5 -275q0 -117 -40.5 -216.5t-109.5 -166.5t-161.5 -104.5t-194.5 -37.5q-138 0 -252 63t-180 175v-563h-100zM297 502q0 -129 60.5 -230t155.5 -152.5t204 -51.5q177 0 298.5 119t121.5 315 q0 194 -121.5 314t-298.5 120q-109 0 -204 -52t-155.5 -153t-60.5 -229z" />
<glyph unicode="q" horiz-adv-x="1335" d="M100 502q0 154 69.5 275t184.5 185t252 64q138 0 252 -63t180 -175v213h101v-1349h-101v563q-66 -112 -180 -175t-252 -63q-102 0 -194.5 37.5t-161.5 104.5t-109.5 166.5t-40.5 216.5zM199 502q0 -196 121 -315t298 -119q109 0 204 51.5t155.5 152.5t60.5 230 q0 128 -60.5 229t-155.5 153t-204 52q-115 0 -210 -52t-152 -152.5t-57 -229.5z" />
<glyph unicode="r" horiz-adv-x="825" d="M199 0v1001h100v-280q63 131 173 210t253 79q41 0 70 -6l-11 -95q-20 4 -59 4q-133 0 -231.5 -69t-146.5 -179.5t-48 -246.5v-418h-100z" />
<glyph unicode="s" horiz-adv-x="1038" d="M111 274l98 25q10 -111 104 -174.5t236 -63.5q128 0 205 54.5t77 150.5q0 74 -49.5 113.5t-140.5 60.5l-246 54q-123 27 -185.5 85.5t-62.5 157.5q0 129 102 209t265 80q159 0 261.5 -74.5t131.5 -195.5l-92 -25q-21 97 -100.5 154t-202.5 57q-120 0 -192 -54t-72 -145 q0 -73 46.5 -110t137.5 -58l242 -53q43 -10 77.5 -22.5t69 -33t57.5 -46.5t37.5 -64t14.5 -84q0 -137 -106.5 -216t-280.5 -79q-179 0 -295.5 78.5t-136.5 218.5z" />
<glyph unicode="t" horiz-adv-x="763" d="M0 915v86h219v330h100v-330h375v-86h-375v-626q0 -100 56 -158.5t149 -58.5q95 0 174 67l39 -82q-105 -80 -219 -80q-135 0 -217 81.5t-82 224.5v632h-219z" />
<glyph unicode="u" horiz-adv-x="1286" d="M176 408v593h98v-579q0 -158 87.5 -255t230.5 -97q181 0 289 115t108 315v501h101v-1001h-101v213q-59 -114 -164.5 -176t-244.5 -62q-182 0 -293 119.5t-111 313.5z" />
<glyph unicode="v" horiz-adv-x="1114" d="M43 1004h113l401 -889l401 889h113l-459 -1004h-110z" />
<glyph unicode="w" horiz-adv-x="1554" d="M43 1004h102l291 -859l301 856h80l301 -858l291 861h102l-340 -1010h-98l-295 848l-297 -848h-98z" />
<glyph unicode="x" horiz-adv-x="1169" d="M109 0l405 498l-405 506h120l357 -447l354 447h121l-406 -506l406 -498h-121l-354 438l-357 -438h-120z" />
<glyph unicode="y" horiz-adv-x="1130" d="M43 1004h115l407 -881l412 881h110l-632 -1352h-111l166 356z" />
<glyph unicode="z" horiz-adv-x="1019" d="M82 0v70l709 845h-689v86h816v-69l-709 -846h729v-86h-856z" />
<glyph unicode="{" horiz-adv-x="884" d="M119 633v82l37 4q85 6 136.5 56.5t51.5 135.5v351q0 115 70.5 184.5t187.5 69.5h156v-86h-148q-75 0 -121.5 -49t-46.5 -128v-350q0 -81 -37 -141t-102 -88q65 -28 102 -88t37 -142v-350q0 -79 46.5 -126.5t121.5 -47.5h148v-88h-156q-117 0 -187.5 69.5t-70.5 184.5v350 q0 86 -51.5 137t-136.5 56z" />
<glyph unicode="|" horiz-adv-x="493" d="M197 -147v1663h100v-1663h-100z" />
<glyph unicode="}" horiz-adv-x="884" d="M129 -80h147q74 0 120 47.5t46 126.5v350q0 82 37 142t103 88q-65 28 -102.5 88t-37.5 141v350q0 79 -46 128t-120 49h-147v86h156q117 0 187.5 -69.5t70.5 -184.5v-351q0 -85 51 -135.5t137 -56.5l37 -4v-82l-37 -4q-86 -5 -137 -56t-51 -137v-350q0 -115 -70.5 -184.5 t-187.5 -69.5h-156v88z" />
<glyph unicode="~" horiz-adv-x="950" d="M86 498q0 114 60 174.5t151 60.5q54 0 104.5 -24t83 -52.5t76 -52.5t86.5 -24q59 0 93.5 40.5t31.5 110.5h94q0 -117 -62 -179.5t-153 -62.5q-44 0 -84.5 16t-71 38.5t-59.5 45t-62.5 38.5t-68.5 16q-62 0 -97.5 -39.5t-31.5 -105.5h-90z" />
<glyph unicode="&#xa1;" horiz-adv-x="532" d="M186 948q0 32 23 54t57 22t56 -22t22 -54q0 -31 -22.5 -53.5t-55.5 -22.5t-56.5 22.5t-23.5 53.5zM213 -291l4 924h100l2 -924v-63h-106v63z" />
<glyph unicode="&#xa2;" horiz-adv-x="1179" d="M100 502q0 214 133.5 357.5t329.5 164.5v266h88v-266q151 -9 269 -93.5t159 -219.5l-94 -31q-31 111 -123.5 176.5t-212.5 73.5v-858q120 8 211.5 70t124.5 167l92 -26q-38 -133 -155 -215t-271 -91v-243h-88v246q-128 13 -232.5 78.5t-167.5 181.5t-63 262zM199 502 q0 -180 104 -295.5t262 -134.5v858q-157 -19 -261.5 -136.5t-104.5 -291.5z" />
<glyph unicode="&#xa3;" horiz-adv-x="1320" d="M129 0v63l174 25v502h-174v94h174v272q0 196 123.5 317.5t323.5 121.5t322.5 -120.5t127.5 -316.5l-100 -20q-3 166 -97.5 262t-252.5 96q-154 0 -249 -93.5t-95 -246.5v-272h542v-94h-542v-496h804v-94h-1081z" />
<glyph unicode="&#xa5;" horiz-adv-x="1337" d="M72 1372h116l480 -737l477 737h121l-500 -756h364v-81h-411v-181h411v-82h-411v-272h-103v272h-409v82h409v181h-409v81h362z" />
<glyph unicode="&#xa7;" horiz-adv-x="1085" d="M82 633q0 101 49.5 169t126.5 101q-86 77 -86 193q0 136 102 217.5t267 81.5q184 0 289.5 -97t107.5 -254l-92 -22q-2 136 -81.5 213.5t-219.5 77.5q-123 0 -199 -60t-76 -157q0 -64 37 -110.5t119 -84.5l324 -145q129 -58 186 -122.5t57 -158.5q0 -102 -50 -170 t-128 -100q88 -79 88 -195q0 -134 -103 -216.5t-268 -82.5q-195 0 -304 98.5t-107 258.5l88 20q2 -139 83.5 -216t235.5 -77q124 0 199.5 60.5t75.5 156.5q0 64 -36.5 110.5t-117.5 82.5l-323 147q-131 58 -187.5 122t-56.5 159zM176 639q0 -64 41.5 -112t151.5 -99 l323 -147q24 -11 49 -25q156 63 156 213q0 63 -41 112t-149 99l-326 147q-9 4 -51 25q-154 -62 -154 -213z" />
<glyph unicode="&#xa8;" horiz-adv-x="1228" d="M342 1274q0 31 23.5 54.5t56.5 23.5t55.5 -23.5t22.5 -54.5q0 -34 -22 -55t-56 -21t-57 21.5t-23 54.5zM729 1274q0 31 23.5 54.5t56.5 23.5t55.5 -23.5t22.5 -54.5q0 -34 -22 -55t-56 -21t-57 21.5t-23 54.5z" />
<glyph unicode="&#xa9;" horiz-adv-x="1607" d="M94 682q0 203 96 367.5t258 255t355 90.5q192 0 353.5 -90.5t257 -255t95.5 -367.5q0 -201 -95.5 -363.5t-257 -252t-353.5 -89.5q-193 0 -355 89.5t-258 252t-96 363.5zM158 684q0 -138 51 -259.5t138.5 -206t206 -133t249.5 -48.5t249 48.5t205 133t138 206t51 259.5 q0 186 -87 336.5t-234 233.5t-322 83q-176 0 -323.5 -83t-234.5 -233.5t-87 -336.5zM430 686q0 170 112.5 277.5t274.5 107.5q133 0 234 -75t123 -189l-74 -19q-26 94 -106 151.5t-177 57.5q-130 0 -218.5 -87t-88.5 -224q0 -139 88.5 -227t218.5 -88q97 0 177.5 59 t103.5 154l73 -17q-23 -118 -122 -194t-232 -76q-162 0 -274.5 109t-112.5 280z" />
<glyph unicode="&#xaa;" horiz-adv-x="790" d="M115 887q0 91 77 145.5t214 54.5h196v43q0 86 -50.5 134.5t-137.5 48.5q-77 0 -129 -39.5t-66 -120.5l-74 14q20 104 91.5 157.5t175.5 53.5q123 0 196.5 -65t73.5 -187v-421h-80v106q-86 -123 -260 -123q-104 0 -165.5 54.5t-61.5 144.5zM195 887q0 -61 43.5 -98 t115.5 -37q107 0 177.5 61.5t70.5 153.5v63h-192q-103 0 -159 -38.5t-56 -104.5z" />
<glyph unicode="&#xab;" horiz-adv-x="790" d="M51 537l260 364h105l-260 -364l260 -365h-105zM375 537l260 364h104l-260 -364l260 -365h-104z" />
<glyph unicode="&#xad;" horiz-adv-x="903" d="M123 477v90h657v-90h-657z" />
<glyph unicode="&#xae;" horiz-adv-x="1024" d="M102 983q0 178 119.5 295t290.5 117t290.5 -117t119.5 -295q0 -176 -119.5 -293t-290.5 -117t-290.5 117t-119.5 293zM150 983q0 -155 105.5 -258.5t256.5 -103.5q152 0 257 103.5t105 258.5q0 159 -105 264t-257 105q-151 0 -256.5 -105t-105.5 -264zM369 799v393h168 q68 0 109.5 -34t41.5 -91q0 -51 -34.5 -85t-92.5 -40l148 -143h-60l-143 141h-92v-141h-45zM414 981h121q47 0 76.5 24t29.5 62t-28.5 61t-75.5 23h-123v-170z" />
<glyph unicode="&#xaf;" horiz-adv-x="1228" d="M342 1206v82h547v-82h-547z" />
<glyph unicode="&#xb0;" horiz-adv-x="823" d="M150 1141q0 113 78 183.5t186 70.5q107 0 183.5 -70.5t76.5 -183.5q0 -111 -77 -182.5t-183 -71.5q-108 0 -186 71.5t-78 182.5zM227 1141q0 -80 56 -131.5t131 -51.5q73 0 127.5 51.5t54.5 131.5q0 81 -54.5 132.5t-127.5 51.5q-75 0 -131 -52t-56 -132z" />
<glyph unicode="&#xb1;" horiz-adv-x="1187" d="M154 0v90h880v-90h-880zM154 662v90h395v376h90v-376h395v-90h-395v-367h-90v367h-395z" />
<glyph unicode="&#xb4;" horiz-adv-x="1228" d="M528 1161l177 283h114l-201 -283h-90z" />
<glyph unicode="&#xb6;" horiz-adv-x="1112" d="M41 999q0 181 107.5 277t291.5 96h217v-1372h-86v612h-102q-186 0 -307 105.5t-121 281.5zM829 0v1372h86v-1372h-86z" />
<glyph unicode="&#xb7;" horiz-adv-x="382" d="M113 545q0 31 23.5 53.5t56.5 22.5t55 -22.5t22 -53.5q0 -34 -21.5 -55t-55.5 -21t-57 21.5t-23 54.5z" />
<glyph unicode="&#xb8;" horiz-adv-x="1228" d="M387 -358l209 358h82l-180 -358h-111z" />
<glyph unicode="&#xba;" horiz-adv-x="911" d="M111 1034q0 151 101.5 247.5t242.5 96.5q146 0 247 -96t101 -248t-101 -249t-247 -97q-141 0 -242.5 97.5t-101.5 248.5zM190 1034q0 -118 80 -195t185 -77q110 0 189 76.5t79 195.5t-79 196t-189 77q-105 0 -185 -77.5t-80 -195.5z" />
<glyph unicode="&#xbb;" horiz-adv-x="790" d="M51 172l260 365l-260 364h105l260 -364l-260 -365h-105zM375 172l260 365l-260 364h104l260 -364l-260 -365h-104z" />
<glyph unicode="&#xbc;" horiz-adv-x="1398" d="M51 1157v84l211 131h51v-745h-82v639zM119 0l1036 1372h80l-1036 -1372h-80zM725 182v76l412 485h88v-493h129v-68h-129v-184h-76v184h-424zM805 250h344v401z" />
<glyph unicode="&#xbd;" horiz-adv-x="1527" d="M51 1157v84l211 131h51v-745h-82v639zM100 0l1037 1372h80l-1037 -1372h-80zM932 0v53l285 244q89 75 123 121.5t34 107.5q0 73 -49 117.5t-129 44.5q-85 0 -134.5 -51t-49.5 -137l-74 14q0 106 70.5 175t187.5 69q115 0 186.5 -63t71.5 -167q0 -79 -43.5 -139.5 t-138.5 -140.5l-209 -176h399v-72h-530z" />
<glyph unicode="&#xbe;" horiz-adv-x="1595" d="M70 877l67 14q4 -94 64.5 -146.5t150.5 -52.5q86 0 138.5 44t52.5 114q0 65 -52 103t-139 38h-69v60h67q79 0 127.5 35t48.5 96q0 63 -51 104t-129 41q-84 0 -138.5 -48.5t-57.5 -135.5l-72 16q4 106 79 170t187 64q114 0 186 -59.5t72 -151.5q0 -57 -32.5 -98t-88.5 -62 q63 -19 100 -64.5t37 -109.5q0 -97 -73.5 -160t-192.5 -63q-121 0 -201 67.5t-81 184.5zM326 0l1036 1372h80l-1036 -1372h-80zM922 182v76l411 485h88v-493h129v-68h-129v-184h-75v184h-424zM1001 250h345v401z" />
<glyph unicode="&#xbf;" horiz-adv-x="1056" d="M74 43q0 171 119 282.5t303 123.5v180h96v-262h-55q-154 0 -259.5 -91t-105.5 -233q0 -148 95.5 -239t252.5 -91q160 0 259 101.5t104 265.5l98 -17q-3 -193 -130.5 -316.5t-330.5 -123.5q-201 0 -323.5 115.5t-122.5 304.5zM465 948q0 32 23 54t57 22t56 -22t22 -54 q0 -31 -22.5 -53.5t-55.5 -22.5t-56.5 22.5t-23.5 53.5z" />
<glyph unicode="&#xc0;" horiz-adv-x="1402" d="M31 0l624 1372h93l624 -1372h-110l-168 375h-783l-170 -375h-110zM354 469h697l-349 772zM455 1815h114l176 -283h-90z" />
<glyph unicode="&#xc1;" horiz-adv-x="1402" d="M31 0l624 1372h93l624 -1372h-110l-168 375h-783l-170 -375h-110zM354 469h697l-349 772zM670 1532l176 283h115l-201 -283h-90z" />
<glyph unicode="&#xc2;" horiz-adv-x="1402" d="M31 0l624 1372h93l624 -1372h-110l-168 375h-783l-170 -375h-110zM354 469h697l-349 772zM414 1518l241 282h95l243 -282h-106l-185 215l-184 -215h-104z" />
<glyph unicode="&#xc3;" horiz-adv-x="1402" d="M31 0l624 1372h93l624 -1372h-110l-168 375h-783l-170 -375h-110zM354 469h697l-349 772zM418 1589q0 89 44.5 134.5t112.5 45.5q39 0 75 -17t59 -37t54.5 -37t63.5 -17q38 0 60 29t22 77h78q0 -89 -44.5 -135.5t-111.5 -46.5q-39 0 -75 16.5t-59 37t-54 37t-61 16.5 q-41 0 -64.5 -28t-23.5 -75h-76z" />
<glyph unicode="&#xc4;" horiz-adv-x="1402" d="M31 0l624 1372h93l624 -1372h-110l-168 375h-783l-170 -375h-110zM354 469h697l-349 772zM430 1645q0 31 23.5 54t56.5 23t55.5 -23t22.5 -54q0 -34 -22 -55t-56 -21t-57 21.5t-23 54.5zM817 1645q0 31 23.5 54t56.5 23t55.5 -23t22.5 -54q0 -34 -22 -55t-56 -21 t-57 21.5t-23 54.5z" />
<glyph unicode="&#xc5;" horiz-adv-x="1402" d="M31 0l624 1372h93l624 -1372h-110l-168 375h-783l-170 -375h-110zM354 469h697l-349 772zM506 1694q0 78 57.5 134t138.5 56q83 0 140 -55.5t57 -134.5t-57 -135t-140 -56q-81 0 -138.5 56.5t-57.5 134.5zM573 1694q0 -51 37.5 -88t91.5 -37t91.5 37t37.5 88t-37.5 88 t-91.5 37t-91.5 -37t-37.5 -88z" />
<glyph unicode="&#xc6;" horiz-adv-x="2129" d="M31 0l1013 1372h1008v-94h-878v-543h817v-92h-817v-549h878v-94h-983v348h-661l-256 -348h-121zM475 442h594v811z" />
<glyph unicode="&#xc7;" horiz-adv-x="1607" d="M129 686q0 146 55.5 277.5t149.5 226t225 150t277 55.5q229 0 401 -113t242 -303l-99 -31q-60 162 -204.5 256t-339.5 94q-125 0 -237 -47.5t-192.5 -129t-128 -195t-47.5 -240.5t47.5 -240.5t128 -195t192.5 -129t237 -47.5q193 0 336.5 93.5t205.5 256.5l101 -25 q-68 -189 -234 -302.5t-387 -119.5l-170 -335h-110l196 338q-135 11 -254.5 70.5t-205.5 152.5t-135.5 218.5t-49.5 264.5z" />
<glyph unicode="&#xc8;" horiz-adv-x="1308" d="M197 0v1372h983v-94h-879v-543h817v-92h-817v-549h879v-94h-983zM449 1815h114l176 -283h-90z" />
<glyph unicode="&#xc9;" horiz-adv-x="1308" d="M197 0v1372h983v-94h-879v-543h817v-92h-817v-549h879v-94h-983zM664 1532l176 283h114l-200 -283h-90z" />
<glyph unicode="&#xca;" horiz-adv-x="1308" d="M197 0v1372h983v-94h-879v-543h817v-92h-817v-549h879v-94h-983zM408 1518l241 282h94l244 -282h-106l-185 215l-184 -215h-104z" />
<glyph unicode="&#xcb;" horiz-adv-x="1308" d="M197 0v1372h983v-94h-879v-543h817v-92h-817v-549h879v-94h-983zM424 1645q0 31 23.5 54t56.5 23t55.5 -23t22.5 -54q0 -34 -22 -55t-56 -21t-57 21.5t-23 54.5zM811 1645q0 31 23.5 54t56.5 23t55.5 -23t22.5 -54q0 -34 -22 -55t-56 -21t-57 21.5t-23 54.5z" />
<glyph unicode="&#xcc;" horiz-adv-x="497" d="M0 1815h115l176 -283h-90zM197 0v1372h104v-1372h-104z" />
<glyph unicode="&#xcd;" horiz-adv-x="497" d="M197 0v1372h104v-1372h-104zM215 1532l176 283h115l-201 -283h-90z" />
<glyph unicode="&#xce;" horiz-adv-x="497" d="M-41 1518l242 282h94l244 -282h-107l-184 215l-185 -215h-104zM197 0v1372h104v-1372h-104z" />
<glyph unicode="&#xcf;" horiz-adv-x="497" d="M-25 1645q0 31 23.5 54t56.5 23t55.5 -23t22.5 -54q0 -34 -22 -55t-56 -21t-57 21.5t-23 54.5zM197 0v1372h104v-1372h-104zM362 1645q0 31 23.5 54t56.5 23t55.5 -23t22.5 -54q0 -34 -22 -55t-56 -21t-57 21.5t-23 54.5z" />
<glyph unicode="&#xd0;" horiz-adv-x="1529" d="M61 645v94h170v633h428q181 0 327.5 -54t241 -148t145 -218t50.5 -266t-50.5 -266t-145 -218t-241 -148t-327.5 -54h-428v645h-170zM334 94h323q158 0 285.5 46.5t209 128t124.5 188t43 229.5t-43 229.5t-124.5 188t-209 128t-285.5 46.5h-323v-539h368v-94h-368v-551z " />
<glyph unicode="&#xd1;" horiz-adv-x="1556" d="M197 0v1372h92l966 -1202v1202h103v-1372h-92l-965 1194v-1194h-104zM512 1589q0 89 45 134.5t113 45.5q39 0 75 -17t59 -37t54.5 -37t63.5 -17q38 0 60 29t22 77h77q0 -89 -44 -135.5t-111 -46.5q-39 0 -75.5 16.5t-59 37t-54 37t-61.5 16.5q-41 0 -64.5 -28t-23.5 -75 h-76z" />
<glyph unicode="&#xd2;" d="M129 686q0 195 92.5 357.5t254 257t355.5 94.5q145 0 275 -55.5t223.5 -150.5t148 -226t54.5 -277q0 -195 -92.5 -358t-254 -257t-354.5 -94q-194 0 -355.5 94t-254 256.5t-92.5 358.5zM231 686q0 -170 79 -310.5t216.5 -221t304.5 -80.5q124 0 235 47.5t191 128.5 t126.5 194.5t46.5 241.5q0 127 -46.5 240.5t-126.5 195t-191 129t-235 47.5q-166 0 -304 -80.5t-217 -221.5t-79 -310zM584 1815h114l176 -283h-90z" />
<glyph unicode="&#xd3;" d="M129 686q0 195 92.5 357.5t254 257t355.5 94.5q145 0 275 -55.5t223.5 -150.5t148 -226t54.5 -277q0 -195 -92.5 -358t-254 -257t-354.5 -94q-194 0 -355.5 94t-254 256.5t-92.5 358.5zM231 686q0 -170 79 -310.5t216.5 -221t304.5 -80.5q124 0 235 47.5t191 128.5 t126.5 194.5t46.5 241.5q0 127 -46.5 240.5t-126.5 195t-191 129t-235 47.5q-166 0 -304 -80.5t-217 -221.5t-79 -310zM799 1532l176 283h115l-201 -283h-90z" />
<glyph unicode="&#xd4;" d="M129 686q0 195 92.5 357.5t254 257t355.5 94.5q145 0 275 -55.5t223.5 -150.5t148 -226t54.5 -277q0 -195 -92.5 -358t-254 -257t-354.5 -94q-194 0 -355.5 94t-254 256.5t-92.5 358.5zM231 686q0 -170 79 -310.5t216.5 -221t304.5 -80.5q124 0 235 47.5t191 128.5 t126.5 194.5t46.5 241.5q0 127 -46.5 240.5t-126.5 195t-191 129t-235 47.5q-166 0 -304 -80.5t-217 -221.5t-79 -310zM543 1518l241 282h95l243 -282h-106l-185 215l-184 -215h-104z" />
<glyph unicode="&#xd5;" d="M129 686q0 195 92.5 357.5t254 257t355.5 94.5q145 0 275 -55.5t223.5 -150.5t148 -226t54.5 -277q0 -195 -92.5 -358t-254 -257t-354.5 -94q-194 0 -355.5 94t-254 256.5t-92.5 358.5zM231 686q0 -170 79 -310.5t216.5 -221t304.5 -80.5q124 0 235 47.5t191 128.5 t126.5 194.5t46.5 241.5q0 127 -46.5 240.5t-126.5 195t-191 129t-235 47.5q-166 0 -304 -80.5t-217 -221.5t-79 -310zM547 1589q0 89 45 134.5t113 45.5q39 0 75 -17t58.5 -37t54 -37t63.5 -17q38 0 60 29t22 77h78q0 -89 -44 -135.5t-111 -46.5q-39 0 -75.5 16.5t-59 37 t-54 37t-61.5 16.5q-41 0 -64.5 -28t-23.5 -75h-76z" />
<glyph unicode="&#xd6;" d="M129 686q0 195 92.5 357.5t254 257t355.5 94.5q145 0 275 -55.5t223.5 -150.5t148 -226t54.5 -277q0 -195 -92.5 -358t-254 -257t-354.5 -94q-194 0 -355.5 94t-254 256.5t-92.5 358.5zM231 686q0 -170 79 -310.5t216.5 -221t304.5 -80.5q124 0 235 47.5t191 128.5 t126.5 194.5t46.5 241.5q0 127 -46.5 240.5t-126.5 195t-191 129t-235 47.5q-166 0 -304 -80.5t-217 -221.5t-79 -310zM559 1645q0 31 23.5 54t56.5 23t55.5 -23t22.5 -54q0 -34 -22 -55t-56 -21t-57 21.5t-23 54.5zM946 1645q0 31 23.5 54t56.5 23t55.5 -23t22.5 -54 q0 -34 -22 -55t-56 -21t-57 21.5t-23 54.5z" />
<glyph unicode="&#xd7;" horiz-adv-x="1017" d="M147 330l295 295l-295 297l66 65l297 -295l295 295l65 -65l-295 -297l295 -295l-65 -68l-295 297l-297 -297z" />
<glyph unicode="&#xd8;" d="M129 686q0 195 92.5 357.5t254 257t355.5 94.5q135 0 256.5 -47.5t215.5 -133.5l129 129l61 -61l-131 -131q170 -197 170 -465q0 -195 -92.5 -358t-254 -257t-354.5 -94q-270 0 -466 177l-134 -134l-61 62l133 133q-83 94 -128.5 215t-45.5 256zM231 686q0 -230 142 -401 l860 860q-169 153 -402 153q-166 0 -304 -80.5t-217 -221.5t-79 -310zM434 223q165 -149 397 -149q124 0 235 47.5t191 128.5t126.5 194.5t46.5 241.5q0 225 -138 395z" />
<glyph unicode="&#xd9;" horiz-adv-x="1484" d="M178 592v780h105v-780q0 -233 126.5 -374.5t335.5 -141.5q206 0 332.5 141.5t126.5 374.5v780h103v-780q0 -277 -155 -446t-407 -169q-255 0 -411 169t-156 446zM494 1815h114l176 -283h-90z" />
<glyph unicode="&#xda;" horiz-adv-x="1484" d="M178 592v780h105v-780q0 -233 126.5 -374.5t335.5 -141.5q206 0 332.5 141.5t126.5 374.5v780h103v-780q0 -277 -155 -446t-407 -169q-255 0 -411 169t-156 446zM711 1532l176 283h114l-200 -283h-90z" />
<glyph unicode="&#xdb;" horiz-adv-x="1484" d="M178 592v780h105v-780q0 -233 126.5 -374.5t335.5 -141.5q206 0 332.5 141.5t126.5 374.5v780h103v-780q0 -277 -155 -446t-407 -169q-255 0 -411 169t-156 446zM455 1518l241 282h95l243 -282h-106l-185 215l-184 -215h-104z" />
<glyph unicode="&#xdc;" horiz-adv-x="1484" d="M178 592v780h105v-780q0 -233 126.5 -374.5t335.5 -141.5q206 0 332.5 141.5t126.5 374.5v780h103v-780q0 -277 -155 -446t-407 -169q-255 0 -411 169t-156 446zM471 1645q0 31 23.5 54t56.5 23t55.5 -23t22.5 -54q0 -34 -22 -55t-56 -21t-57 21.5t-23 54.5zM858 1645 q0 31 23.5 54t56.5 23t55.5 -23t22.5 -54q0 -34 -22 -55t-56 -21t-57 21.5t-23 54.5z" />
<glyph unicode="&#xdd;" horiz-adv-x="1351" d="M43 1372h117l516 -772l514 772h119l-582 -872v-500h-104v500zM643 1532l176 283h115l-201 -283h-90z" />
<glyph unicode="&#xde;" horiz-adv-x="1263" d="M197 0v1372h104v-262h424q211 0 342 -118.5t131 -305.5t-131 -305.5t-342 -118.5h-424v-262h-104zM301 356h422q166 0 268.5 93t102.5 237q0 146 -102.5 239t-268.5 93h-422v-662z" />
<glyph unicode="&#xdf;" horiz-adv-x="1339" d="M197 0v989q0 234 137 377t360 143q203 0 328 -106t125 -273q0 -124 -67.5 -217.5t-188.5 -126.5q159 -26 253.5 -126t94.5 -261q0 -177 -118 -297t-322 -120q-196 0 -357 81l27 84q151 -77 326 -77q164 0 259 95.5t95 233.5q0 160 -118 249t-314 89h-107v88h97 q155 0 249.5 80.5t94.5 210.5q0 137 -98 220t-259 83q-180 0 -288.5 -115.5t-108.5 -310.5v-993h-100z" />
<glyph unicode="&#xe0;" horiz-adv-x="1318" d="M84 502q0 154 70 275t185.5 185t252.5 64q136 0 250 -62.5t180 -172.5v210h100v-1001h-100v211q-66 -110 -179.5 -172t-250.5 -62q-102 0 -194.5 37.5t-162 104.5t-110.5 166.5t-41 216.5zM182 502q0 -196 121.5 -315t298.5 -119q109 0 204 51.5t155.5 152.5t60.5 230 q0 128 -60.5 229t-155.5 153t-204 52q-177 0 -298.5 -120t-121.5 -314zM385 1444h115l176 -283h-90z" />
<glyph unicode="&#xe1;" horiz-adv-x="1318" d="M84 502q0 154 70 275t185.5 185t252.5 64q136 0 250 -62.5t180 -172.5v210h100v-1001h-100v211q-66 -110 -179.5 -172t-250.5 -62q-102 0 -194.5 37.5t-162 104.5t-110.5 166.5t-41 216.5zM182 502q0 -196 121.5 -315t298.5 -119q109 0 204 51.5t155.5 152.5t60.5 230 q0 128 -60.5 229t-155.5 153t-204 52q-177 0 -298.5 -120t-121.5 -314zM600 1161l176 283h115l-201 -283h-90z" />
<glyph unicode="&#xe2;" horiz-adv-x="1318" d="M84 502q0 154 70 275t185.5 185t252.5 64q136 0 250 -62.5t180 -172.5v210h100v-1001h-100v211q-66 -110 -179.5 -172t-250.5 -62q-102 0 -194.5 37.5t-162 104.5t-110.5 166.5t-41 216.5zM182 502q0 -196 121.5 -315t298.5 -119q109 0 204 51.5t155.5 152.5t60.5 230 q0 128 -60.5 229t-155.5 153t-204 52q-177 0 -298.5 -120t-121.5 -314zM344 1147l242 283h94l244 -283h-107l-184 215l-184 -215h-105z" />
<glyph unicode="&#xe3;" horiz-adv-x="1318" d="M84 502q0 154 70 275t185.5 185t252.5 64q136 0 250 -62.5t180 -172.5v210h100v-1001h-100v211q-66 -110 -179.5 -172t-250.5 -62q-102 0 -194.5 37.5t-162 104.5t-110.5 166.5t-41 216.5zM182 502q0 -196 121.5 -315t298.5 -119q109 0 204 51.5t155.5 152.5t60.5 230 q0 128 -60.5 229t-155.5 153t-204 52q-177 0 -298.5 -120t-121.5 -314zM348 1219q0 89 45 134.5t113 45.5q39 0 75 -17t59 -37.5t54.5 -37.5t63.5 -17q38 0 60 29.5t22 77.5h78q0 -89 -44.5 -136t-111.5 -47q-39 0 -75.5 16.5t-59 37t-54 37t-61.5 16.5q-41 0 -64.5 -27.5 t-23.5 -74.5h-76z" />
<glyph unicode="&#xe4;" horiz-adv-x="1318" d="M84 502q0 154 70 275t185.5 185t252.5 64q136 0 250 -62.5t180 -172.5v210h100v-1001h-100v211q-66 -110 -179.5 -172t-250.5 -62q-102 0 -194.5 37.5t-162 104.5t-110.5 166.5t-41 216.5zM182 502q0 -196 121.5 -315t298.5 -119q109 0 204 51.5t155.5 152.5t60.5 230 q0 128 -60.5 229t-155.5 153t-204 52q-177 0 -298.5 -120t-121.5 -314zM360 1274q0 31 23.5 54.5t56.5 23.5t55.5 -23.5t22.5 -54.5q0 -34 -22 -55t-56 -21t-57 21.5t-23 54.5zM748 1274q0 31 23 54.5t56 23.5t55.5 -23.5t22.5 -54.5q0 -34 -22 -55t-56 -21t-56.5 21.5 t-22.5 54.5z" />
<glyph unicode="&#xe5;" horiz-adv-x="1318" d="M84 502q0 154 70 275t185.5 185t252.5 64q136 0 250 -62.5t180 -172.5v210h100v-1001h-100v211q-66 -110 -179.5 -172t-250.5 -62q-102 0 -194.5 37.5t-162 104.5t-110.5 166.5t-41 216.5zM182 502q0 -196 121.5 -315t298.5 -119q109 0 204 51.5t155.5 152.5t60.5 230 q0 128 -60.5 229t-155.5 153t-204 52q-177 0 -298.5 -120t-121.5 -314zM436 1323q0 78 57.5 134t139.5 56q83 0 139.5 -55.5t56.5 -134.5t-56.5 -134.5t-139.5 -55.5q-82 0 -139.5 56t-57.5 134zM504 1323q0 -51 37.5 -88t91.5 -37t91.5 37t37.5 88t-37.5 88t-91.5 37 t-91.5 -37t-37.5 -88z" />
<glyph unicode="&#xe6;" horiz-adv-x="1925" d="M100 270q0 132 102 206.5t277 74.5h395v106q0 127 -83 204t-218 77q-142 0 -225.5 -61.5t-101.5 -171.5l-90 22q15 135 125 217t292 82q136 0 236 -65.5t135 -176.5q64 115 171 178.5t245 63.5q201 0 330.5 -145t134.5 -371v-37h-856q9 -188 117 -297.5t276 -109.5 q69 0 138.5 28t130 88.5t85.5 141.5l90 -23q-36 -143 -165.5 -233.5t-280.5 -90.5q-157 0 -270.5 76.5t-171.5 216.5q-50 -135 -168 -214t-273 -79q-181 0 -279 81.5t-98 211.5zM197 272q0 -95 75.5 -153t212.5 -58q163 0 276 110t113 284v18h-395q-131 0 -206.5 -52.5 t-75.5 -148.5zM969 551h755q-15 174 -114 280.5t-246 106.5q-162 0 -272.5 -104t-122.5 -283z" />
<glyph unicode="&#xe7;" horiz-adv-x="1179" d="M100 502q0 114 42 213t112.5 166.5t164.5 106t197 38.5q162 0 290.5 -86t172.5 -229l-94 -31q-34 118 -137 185t-232 67q-173 0 -295 -120.5t-122 -309.5q0 -195 121 -313.5t296 -118.5q129 0 231 63t138 176l92 -26q-38 -132 -155 -213.5t-269 -89.5l-170 -338h-110 l196 338q-96 8 -181.5 48t-149 106.5t-101 161.5t-37.5 206z" />
<glyph unicode="&#xe8;" horiz-adv-x="1204" d="M100 498q0 119 43 219.5t115 167.5t165.5 104t194.5 37q207 0 344 -138.5t144 -359.5v-36h-907q2 -129 62.5 -228t151 -148.5t193.5 -49.5q135 0 236 63t153 193l88 -21q-57 -157 -180.5 -240.5t-296.5 -83.5q-97 0 -187.5 36.5t-161.5 102t-114 165t-43 217.5zM203 569 h803q-18 171 -125 269t-263 98q-150 0 -272 -100.5t-143 -266.5zM371 1444h114l177 -283h-91z" />
<glyph unicode="&#xe9;" horiz-adv-x="1204" d="M100 498q0 119 43 219.5t115 167.5t165.5 104t194.5 37q207 0 344 -138.5t144 -359.5v-36h-907q2 -129 62.5 -228t151 -148.5t193.5 -49.5q135 0 236 63t153 193l88 -21q-57 -157 -180.5 -240.5t-296.5 -83.5q-97 0 -187.5 36.5t-161.5 102t-114 165t-43 217.5zM203 569 h803q-18 171 -125 269t-263 98q-150 0 -272 -100.5t-143 -266.5zM586 1161l176 283h115l-201 -283h-90z" />
<glyph unicode="&#xea;" horiz-adv-x="1204" d="M100 498q0 119 43 219.5t115 167.5t165.5 104t194.5 37q207 0 344 -138.5t144 -359.5v-36h-907q2 -129 62.5 -228t151 -148.5t193.5 -49.5q135 0 236 63t153 193l88 -21q-57 -157 -180.5 -240.5t-296.5 -83.5q-97 0 -187.5 36.5t-161.5 102t-114 165t-43 217.5zM203 569 h803q-18 171 -125 269t-263 98q-150 0 -272 -100.5t-143 -266.5zM330 1147l241 283h95l243 -283h-106l-185 215l-184 -215h-104z" />
<glyph unicode="&#xeb;" horiz-adv-x="1204" d="M100 498q0 119 43 219.5t115 167.5t165.5 104t194.5 37q207 0 344 -138.5t144 -359.5v-36h-907q2 -129 62.5 -228t151 -148.5t193.5 -49.5q135 0 236 63t153 193l88 -21q-57 -157 -180.5 -240.5t-296.5 -83.5q-97 0 -187.5 36.5t-161.5 102t-114 165t-43 217.5zM203 569 h803q-18 171 -125 269t-263 98q-150 0 -272 -100.5t-143 -266.5zM346 1274q0 31 23.5 54.5t56.5 23.5t55.5 -23.5t22.5 -54.5q0 -34 -22 -55t-56 -21t-57 21.5t-23 54.5zM733 1274q0 31 23.5 54.5t56.5 23.5t55.5 -23.5t22.5 -54.5q0 -34 -22 -55t-56 -21t-57 21.5t-23 54.5 z" />
<glyph unicode="&#xec;" horiz-adv-x="552" d="M29 1444h114l176 -283h-90zM227 0v1001h99v-1001h-99z" />
<glyph unicode="&#xed;" horiz-adv-x="552" d="M227 0v1001h99v-1001h-99zM244 1161l176 283h115l-201 -283h-90z" />
<glyph unicode="&#xee;" horiz-adv-x="552" d="M-12 1147l241 283h95l243 -283h-106l-185 215l-184 -215h-104zM227 0v1001h99v-1001h-99z" />
<glyph unicode="&#xef;" horiz-adv-x="552" d="M4 1274q0 31 23.5 54.5t56.5 23.5t55.5 -23.5t22.5 -54.5q0 -34 -22 -55t-56 -21t-57 21.5t-23 54.5zM227 0v1001h99v-1001h-99zM391 1274q0 31 23.5 54.5t56.5 23.5t55.5 -23.5t22.5 -54.5q0 -34 -22 -55t-56 -21t-57 21.5t-23 54.5z" />
<glyph unicode="&#xf0;" horiz-adv-x="1247" d="M100 502q0 152 70.5 273t187.5 186t256 65q90 0 174.5 -33t145.5 -94q-113 196 -287 332l-268 -127l-33 74l227 108q-138 97 -317 168v21h170q124 -56 242 -144l217 103l33 -74l-179 -86q189 -161 298.5 -366t109.5 -400q0 -121 -43 -222.5t-115 -168t-165 -103.5 t-193 -37q-143 0 -263.5 64.5t-194 186t-73.5 274.5zM199 502q0 -190 127 -312t305 -122q82 0 152 27t118 71t81.5 102t49 118.5t15.5 121.5q0 183 -125.5 305.5t-296.5 122.5q-175 0 -300.5 -122t-125.5 -312z" />
<glyph unicode="&#xf1;" horiz-adv-x="1286" d="M197 0v1001h100v-213q59 114 165 176t247 62q181 0 292 -119t111 -311v-596h-100v582q0 158 -87.5 254t-228.5 96q-182 0 -290.5 -115.5t-108.5 -314.5v-502h-100zM381 1219q0 89 45 134.5t113 45.5q39 0 75 -17t59 -37.5t54.5 -37.5t63.5 -17q38 0 59.5 29.5t21.5 77.5 h78q0 -89 -44 -136t-111 -47q-39 0 -75.5 16.5t-59 37t-54 37t-61.5 16.5q-41 0 -64.5 -27.5t-23.5 -74.5h-76z" />
<glyph unicode="&#xf2;" horiz-adv-x="1253" d="M100 502q0 149 69.5 269t190 186.5t267.5 66.5t267 -66.5t189.5 -186.5t69.5 -269q0 -226 -151 -375.5t-375 -149.5t-375.5 149.5t-151.5 375.5zM199 502q0 -188 123.5 -311t304.5 -123t304.5 123t123.5 311q0 189 -123 311.5t-305 122.5t-305 -122.5t-123 -311.5z M379 1460h115l176 -282h-90z" />
<glyph unicode="&#xf3;" horiz-adv-x="1253" d="M100 502q0 149 69.5 269t190 186.5t267.5 66.5t267 -66.5t189.5 -186.5t69.5 -269q0 -226 -151 -375.5t-375 -149.5t-375.5 149.5t-151.5 375.5zM199 502q0 -188 123.5 -311t304.5 -123t304.5 123t123.5 311q0 189 -123 311.5t-305 122.5t-305 -122.5t-123 -311.5z M594 1178l176 282h115l-201 -282h-90z" />
<glyph unicode="&#xf4;" horiz-adv-x="1253" d="M100 502q0 149 69.5 269t190 186.5t267.5 66.5t267 -66.5t189.5 -186.5t69.5 -269q0 -226 -151 -375.5t-375 -149.5t-375.5 149.5t-151.5 375.5zM199 502q0 -188 123.5 -311t304.5 -123t304.5 123t123.5 311q0 189 -123 311.5t-305 122.5t-305 -122.5t-123 -311.5z M338 1163l242 283h94l244 -283h-107l-184 215l-185 -215h-104z" />
<glyph unicode="&#xf5;" horiz-adv-x="1253" d="M100 502q0 149 69.5 269t190 186.5t267.5 66.5t267 -66.5t189.5 -186.5t69.5 -269q0 -226 -151 -375.5t-375 -149.5t-375.5 149.5t-151.5 375.5zM199 502q0 -188 123.5 -311t304.5 -123t304.5 123t123.5 311q0 189 -123 311.5t-305 122.5t-305 -122.5t-123 -311.5z M342 1235q0 89 45 134.5t113 45.5q39 0 75 -17t59 -37t54.5 -37t63.5 -17q38 0 60 29t22 77h77q0 -89 -44 -135.5t-111 -46.5q-39 0 -75.5 16.5t-59 36.5t-54 36.5t-61.5 16.5q-41 0 -64.5 -27.5t-23.5 -74.5h-76z" />
<glyph unicode="&#xf6;" horiz-adv-x="1253" d="M100 502q0 149 69.5 269t190 186.5t267.5 66.5t267 -66.5t189.5 -186.5t69.5 -269q0 -226 -151 -375.5t-375 -149.5t-375.5 149.5t-151.5 375.5zM199 502q0 -188 123.5 -311t304.5 -123t304.5 123t123.5 311q0 189 -123 311.5t-305 122.5t-305 -122.5t-123 -311.5z M354 1290q0 31 23.5 54.5t56.5 23.5t55.5 -23.5t22.5 -54.5q0 -34 -22 -55t-56 -21t-57 21.5t-23 54.5zM741 1290q0 31 23.5 54.5t56.5 23.5t55.5 -23.5t22.5 -54.5q0 -34 -22 -55t-56 -21t-57 21.5t-23 54.5z" />
<glyph unicode="&#xf7;" horiz-adv-x="1187" d="M154 580v90h880v-90h-880zM512 252q0 31 23.5 54.5t56.5 23.5t55.5 -23.5t22.5 -54.5q0 -32 -22 -54t-56 -22t-57 22t-23 54zM512 997q0 31 23.5 53.5t56.5 22.5t55.5 -22.5t22.5 -53.5q0 -32 -22 -53.5t-56 -21.5t-57 21.5t-23 53.5z" />
<glyph unicode="&#xf8;" horiz-adv-x="1245" d="M100 502q0 149 69.5 269t190 186.5t267.5 66.5q200 0 346 -121l117 117l53 -53l-117 -117q127 -143 127 -348q0 -226 -151 -375.5t-375 -149.5q-204 0 -348 125l-123 -122l-54 55l121 121q-123 142 -123 346zM199 502q0 -162 94 -277l612 613q-119 98 -278 98 q-182 0 -305 -122.5t-123 -311.5zM346 170q117 -102 281 -102q181 0 304.5 123t123.5 311q0 162 -94 280z" />
<glyph unicode="&#xf9;" horiz-adv-x="1286" d="M176 408v593h98v-579q0 -158 87.5 -255t230.5 -97q181 0 289 115t108 315v501h101v-1001h-101v213q-59 -114 -164.5 -176t-244.5 -62q-182 0 -293 119.5t-111 313.5zM383 1444h115l176 -283h-90z" />
<glyph unicode="&#xfa;" horiz-adv-x="1286" d="M176 408v593h98v-579q0 -158 87.5 -255t230.5 -97q181 0 289 115t108 315v501h101v-1001h-101v213q-59 -114 -164.5 -176t-244.5 -62q-182 0 -293 119.5t-111 313.5zM598 1161l176 283h115l-201 -283h-90z" />
<glyph unicode="&#xfb;" horiz-adv-x="1286" d="M176 408v593h98v-579q0 -158 87.5 -255t230.5 -97q181 0 289 115t108 315v501h101v-1001h-101v213q-59 -114 -164.5 -176t-244.5 -62q-182 0 -293 119.5t-111 313.5zM342 1147l242 283h94l244 -283h-107l-184 215l-185 -215h-104z" />
<glyph unicode="&#xfc;" horiz-adv-x="1286" d="M176 408v593h98v-579q0 -158 87.5 -255t230.5 -97q181 0 289 115t108 315v501h101v-1001h-101v213q-59 -114 -164.5 -176t-244.5 -62q-182 0 -293 119.5t-111 313.5zM358 1274q0 31 23.5 54.5t56.5 23.5t55.5 -23.5t22.5 -54.5q0 -34 -22 -55t-56 -21t-57 21.5t-23 54.5z M745 1274q0 31 23.5 54.5t56.5 23.5t55.5 -23.5t22.5 -54.5q0 -34 -22 -55t-56 -21t-57 21.5t-23 54.5z" />
<glyph unicode="&#xfd;" horiz-adv-x="1130" d="M43 1004h115l407 -881l412 881h110l-632 -1352h-111l166 356zM545 1163l176 283h115l-201 -283h-90z" />
<glyph unicode="&#xfe;" horiz-adv-x="1335" d="M197 -348v1823h100v-687q66 112 180 175t252 63q137 0 252 -64t184.5 -185t69.5 -275q0 -117 -40.5 -216.5t-109.5 -166.5t-161.5 -104.5t-194.5 -37.5q-138 0 -252 63t-180 175v-563h-100zM297 502q0 -129 60.5 -230t155.5 -152.5t204 -51.5q177 0 298.5 119t121.5 315 q0 194 -121.5 314t-298.5 120q-109 0 -204 -52t-155.5 -153t-60.5 -229z" />
<glyph unicode="&#xff;" horiz-adv-x="1130" d="M43 1004h115l407 -881l412 881h110l-632 -1352h-111l166 356zM305 1276q0 31 23.5 54.5t56.5 23.5t55.5 -23.5t22.5 -54.5q0 -34 -22 -55t-56 -21t-57 21.5t-23 54.5zM692 1276q0 31 23.5 54.5t56.5 23.5t55.5 -23.5t22.5 -54.5q0 -34 -22 -55t-56 -21t-57 21.5t-23 54.5 z" />
<glyph unicode="&#x152;" horiz-adv-x="2158" d="M129 686q0 148 56 274t159.5 217.5t259.5 143t348 51.5h1078v-94h-879v-543h817v-92h-817v-549h881v-94h-1080q-192 0 -348 51.5t-259.5 143t-159.5 217t-56 274.5zM231 686q0 -265 191 -428.5t530 -163.5h97v1184h-97q-339 0 -530 -163.5t-191 -428.5z" />
<glyph unicode="&#x153;" horiz-adv-x="2160" d="M100 502q0 149 69.5 269t190 186.5t267.5 66.5q160 0 287.5 -79.5t189.5 -215.5q64 139 191.5 218t279.5 79q136 0 245 -62t173 -176t69 -260v-36h-907q2 -129 62.5 -228t151.5 -148.5t194 -49.5q135 0 236 63t153 193l88 -21q-57 -157 -180.5 -240.5t-296.5 -83.5 q-145 0 -271 78.5t-188 216.5q-64 -136 -190.5 -215.5t-286.5 -79.5q-224 0 -375.5 149.5t-151.5 375.5zM199 502q0 -188 123.5 -311t304.5 -123t304.5 123t123.5 311q0 189 -123 311.5t-305 122.5t-305 -122.5t-123 -311.5zM1159 569h803q-18 171 -125 269t-262 98 q-150 0 -272.5 -100.5t-143.5 -266.5z" />
<glyph unicode="&#x178;" horiz-adv-x="1351" d="M43 1372h117l516 -772l514 772h119l-582 -872v-500h-104v500zM403 1645q0 31 23.5 54t56.5 23t55.5 -23t22.5 -54q0 -34 -22 -55t-56 -21t-57 21.5t-23 54.5zM791 1645q0 31 23 54t56 23t55.5 -23t22.5 -54q0 -34 -22 -55t-56 -21t-56.5 21.5t-22.5 54.5z" />
<glyph unicode="&#x2c6;" horiz-adv-x="1228" d="M326 1147l241 283h95l243 -283h-106l-185 215l-184 -215h-104z" />
<glyph unicode="&#x2dc;" horiz-adv-x="1228" d="M330 1221q0 89 44.5 134.5t112.5 45.5q39 0 75 -17t59 -37.5t54.5 -37.5t63.5 -17q38 0 60 29.5t22 77.5h78q0 -89 -44.5 -135.5t-111.5 -46.5q-39 0 -75 16.5t-59 36.5t-54 36.5t-61 16.5q-41 0 -64.5 -27.5t-23.5 -74.5h-76z" />
<glyph unicode="&#x2000;" horiz-adv-x="942" />
<glyph unicode="&#x2001;" horiz-adv-x="1884" />
<glyph unicode="&#x2002;" horiz-adv-x="942" />
<glyph unicode="&#x2003;" horiz-adv-x="1884" />
<glyph unicode="&#x2004;" horiz-adv-x="628" />
<glyph unicode="&#x2005;" horiz-adv-x="471" />
<glyph unicode="&#x2006;" horiz-adv-x="314" />
<glyph unicode="&#x2007;" horiz-adv-x="314" />
<glyph unicode="&#x2008;" horiz-adv-x="235" />
<glyph unicode="&#x2009;" horiz-adv-x="376" />
<glyph unicode="&#x200a;" horiz-adv-x="104" />
<glyph unicode="&#x2010;" horiz-adv-x="903" d="M123 477v90h657v-90h-657z" />
<glyph unicode="&#x2011;" horiz-adv-x="903" d="M123 477v90h657v-90h-657z" />
<glyph unicode="&#x2012;" horiz-adv-x="903" d="M123 477v90h657v-90h-657z" />
<glyph unicode="&#x2013;" horiz-adv-x="1269" d="M123 481v82h1024v-82h-1024z" />
<glyph unicode="&#x2014;" horiz-adv-x="2129" d="M123 481v82h1884v-82h-1884z" />
<glyph unicode="&#x2018;" horiz-adv-x="479" d="M106 840v4l183 528h80l-142 -532h-121z" />
<glyph unicode="&#x2019;" horiz-adv-x="479" d="M111 840l141 532h121v-4l-180 -528h-82z" />
<glyph unicode="&#x201a;" horiz-adv-x="479" d="M111 -270l141 534h121v-6l-180 -528h-82z" />
<glyph unicode="&#x201c;" horiz-adv-x="792" d="M106 840v4l183 528h80l-142 -532h-121zM420 840v4l180 528h82l-141 -532h-121z" />
<glyph unicode="&#x201d;" horiz-adv-x="792" d="M111 840l141 532h121v-4l-180 -528h-82zM422 840l141 532h121v-4l-180 -528h-82z" />
<glyph unicode="&#x201e;" horiz-adv-x="792" d="M111 -270l141 534h121v-6l-180 -528h-82zM422 -270l141 534h121v-6l-180 -528h-82z" />
<glyph unicode="&#x2022;" horiz-adv-x="788" d="M113 545q0 111 81 191.5t199 80.5t200.5 -81t82.5 -191q0 -118 -81 -194.5t-202 -76.5t-200.5 76.5t-79.5 194.5z" />
<glyph unicode="&#x2026;" horiz-adv-x="1181" d="M113 72q0 31 23 53t57 22q33 0 55 -22t22 -53q0 -34 -21.5 -56t-55.5 -22t-57 22t-23 56zM512 72q0 31 23 53t57 22q33 0 55.5 -22t22.5 -53q0 -34 -22 -56t-56 -22t-57 22t-23 56zM911 72q0 31 23 53t57 22q33 0 55.5 -22t22.5 -53q0 -34 -22 -56t-56 -22t-57 22t-23 56 z" />
<glyph unicode="&#x202f;" horiz-adv-x="376" />
<glyph unicode="&#x2039;" horiz-adv-x="466" d="M51 537l260 364h105l-260 -364l260 -365h-105z" />
<glyph unicode="&#x203a;" horiz-adv-x="466" d="M51 172l260 365l-260 364h105l260 -364l-260 -365h-105z" />
<glyph unicode="&#x205f;" horiz-adv-x="471" />
<glyph unicode="&#x20ac;" horiz-adv-x="1634" d="M197 483v80h235q-6 59 -6 123q0 37 4 107h-233v79h245q42 241 185 382t352 141q198 0 338 -126.5t188 -340.5l-100 -25q-44 187 -156.5 292t-269.5 105q-164 0 -278.5 -115t-153.5 -313h569l-20 -79h-559q-7 -61 -7 -107q0 -55 7 -123h497l-18 -80h-465 q40 -190 153 -299.5t275 -109.5q157 0 269 102.5t159 288.5l98 -23q-48 -213 -188 -339t-338 -126q-204 0 -347 136.5t-188 369.5h-247z" />
<glyph unicode="&#x2122;" horiz-adv-x="1314" d="M80 1313v59h461v-59h-197v-479h-70v479h-194zM635 834v538h72l219 -430l219 430h69v-538h-65v407l-203 -403h-45l-201 403v-407h-65z" />
<glyph unicode="&#x25fc;" horiz-adv-x="1003" d="M0 0v1004h1004v-1004h-1004z" />
</font>
</defs>
</svg>
